<svg fill="none" height="14" viewBox="0 0 15 14" width="15" xmlns="http://www.w3.org/2000/svg"><path d="m1.50248 11.148c.10723.96.87459 1.727 1.8341 1.838 1.08422.1254 2.20457.2491 3.35086.2491s2.26663-.1237 3.35086-.2491c.9595-.111 1.7269-.878 1.8341-1.838.1205-1.079.2369-2.19398.2369-3.33471 0-1.14072-.1164-2.25567-.2369-3.33475-.1072-.95994-.8746-1.72693-1.8341-1.83792-1.08423-.12542-2.20457-.24914-3.35086-.24914s-2.26664.12372-3.35086.24914c-.95951.11099-1.72687.87798-1.8341 1.83792-.12054 1.07908-.23686 2.19403-.23686 3.33475 0 1.14073.11632 2.25571.23686 3.33471z" fill="#fff"/><g stroke="#4147d5" stroke-linecap="round" stroke-width="1.5"><path d="m5.88994 2.4101c-.8693.03915-1.72195.13433-2.55335.2305-.95952.11099-1.72688.87798-1.83411 1.83792-.12054 1.07908-.23686 2.19403-.23686 3.33475 0 1.14073.11632 2.25563.23686 3.33473.10723.96.87459 1.727 1.8341 1.838 1.08422.1254 2.20457.2491 3.35086.2491s2.26663-.1237 3.35086-.2491c.9595-.111 1.7269-.878 1.8341-1.8379.0867-.7763.1712-1.57105.2118-2.38065"/><path d="m10.6085 1.30268-3.68491 4.18116-.50482 2.37432c-.08123.38204.317.74353.68994.62629l2.36281-.74281 3.80608-4.00491c.6322-.66517.5219-1.77771-.2433-2.45452-.7473-.66096-1.8333-.651794-2.4258.02047z" fill="#d7e0ff" stroke-linejoin="round"/></g></svg>